<mxfile host="app.diagrams.net" modified="2020-12-08T13:38:24.713Z" agent="5.0 (Windows NT 10.0; Win64; x64) AppleWebKit/537.36 (KHTML, like Gecko) Chrome/87.0.4280.67 Safari/537.36 Edg/87.0.664.55" etag="-PuOigAqQG2TIW7l8_Tt" version="13.10.2" type="github">
  <diagram id="S3HoZi_PiNymMm89g8wx" name="Page-1">
    <mxGraphModel dx="1171" dy="668" grid="1" gridSize="10" guides="1" tooltips="1" connect="1" arrows="1" fold="1" page="1" pageScale="1" pageWidth="1169" pageHeight="827" math="0" shadow="0">
      <root>
        <mxCell id="0" />
        <mxCell id="1" parent="0" />
        <mxCell id="y6EibmAKcv-QeFw1Fl4T-4" value="Customer" style="shape=umlLifeline;participant=umlActor;perimeter=lifelinePerimeter;whiteSpace=wrap;html=1;container=1;collapsible=0;recursiveResize=0;verticalAlign=top;spacingTop=36;outlineConnect=0;size=40;" vertex="1" parent="1">
          <mxGeometry x="130" y="70" width="20" height="440" as="geometry" />
        </mxCell>
        <mxCell id="y6EibmAKcv-QeFw1Fl4T-5" value="InputPanel" style="shape=umlLifeline;perimeter=lifelinePerimeter;whiteSpace=wrap;html=1;container=1;collapsible=0;recursiveResize=0;outlineConnect=0;" vertex="1" parent="1">
          <mxGeometry x="240" y="80" width="100" height="430" as="geometry" />
        </mxCell>
        <mxCell id="y6EibmAKcv-QeFw1Fl4T-6" value="CoinDispencer" style="shape=umlLifeline;perimeter=lifelinePerimeter;whiteSpace=wrap;html=1;container=1;collapsible=0;recursiveResize=0;outlineConnect=0;" vertex="1" parent="1">
          <mxGeometry x="410" y="80" width="100" height="430" as="geometry" />
        </mxCell>
        <mxCell id="y6EibmAKcv-QeFw1Fl4T-11" value="" style="html=1;points=[];perimeter=orthogonalPerimeter;" vertex="1" parent="y6EibmAKcv-QeFw1Fl4T-6">
          <mxGeometry x="45" y="50" width="10" height="50" as="geometry" />
        </mxCell>
        <mxCell id="y6EibmAKcv-QeFw1Fl4T-7" value="CoinAcceptor" style="shape=umlLifeline;perimeter=lifelinePerimeter;whiteSpace=wrap;html=1;container=1;collapsible=0;recursiveResize=0;outlineConnect=0;" vertex="1" parent="1">
          <mxGeometry x="580" y="80" width="100" height="430" as="geometry" />
        </mxCell>
        <mxCell id="y6EibmAKcv-QeFw1Fl4T-8" value="YouSpinMeRound" style="shape=umlLifeline;perimeter=lifelinePerimeter;whiteSpace=wrap;html=1;container=1;collapsible=0;recursiveResize=0;outlineConnect=0;" vertex="1" parent="1">
          <mxGeometry x="740" y="80" width="100" height="430" as="geometry" />
        </mxCell>
      </root>
    </mxGraphModel>
  </diagram>
</mxfile>
